<?xml version="1.0" standalone="no"?>
<!DOCTYPE svg PUBLIC "-//W3C//DTD SVG 20010904//EN"
 "http://www.w3.org/TR/2001/REC-SVG-20010904/DTD/svg10.dtd">
<svg version="1.0" xmlns="http://www.w3.org/2000/svg"
 width="300.000000pt" height="300.000000pt" viewBox="0 0 300.000000 300.000000"
 preserveAspectRatio="xMidYMid meet">

<g transform="translate(0.000000,300.000000) scale(0.100000,-0.100000)"
fill="#000000" stroke="none">
<path d="M0 2745 l0 -255 255 0 255 0 0 255 0 255 -255 0 -255 0 0 -255z m430
5 l0 -180 -180 0 -180 0 0 180 0 180 180 0 180 0 0 -180z"/>
<path d="M140 2750 l0 -110 110 0 110 0 0 110 0 110 -110 0 -110 0 0 -110z"/>
<path d="M580 2930 l0 -70 35 0 35 0 0 70 0 70 -35 0 -35 0 0 -70z"/>
<path d="M1170 2965 l0 -35 -75 0 -75 0 0 -70 0 -70 -35 0 -35 0 0 -75 0 -75
35 0 35 0 0 -75 0 -75 35 0 c34 0 35 1 35 40 l0 40 40 0 40 0 0 -185 0 -185
-110 0 -110 0 0 75 0 75 70 0 70 0 0 35 0 35 -70 0 -70 0 0 75 0 75 -40 0
c-39 0 -40 1 -40 35 0 33 -2 35 -35 35 -33 0 -35 2 -35 35 0 33 2 35 35 35 34
0 35 1 35 40 0 39 -1 40 -35 40 -33 0 -35 2 -35 35 0 33 2 35 35 35 33 0 35 2
35 35 l0 35 -70 0 -70 0 0 -70 0 -70 -75 0 -75 0 0 -150 0 -150 35 0 35 0 0
-110 0 -110 -35 0 -35 0 0 -110 0 -110 35 0 35 0 0 75 0 75 40 0 c39 0 40 -1
40 -35 0 -33 2 -35 35 -35 34 0 35 -1 35 -40 0 -39 -1 -40 -35 -40 -33 0 -35
-2 -35 -35 0 -34 -1 -35 -40 -35 -39 0 -40 -1 -40 -35 0 -33 -2 -35 -35 -35
-33 0 -35 2 -35 35 l0 35 -75 0 -75 0 0 35 c0 34 1 35 40 35 l40 0 0 40 0 40
-75 0 -75 0 0 -40 c0 -39 -1 -40 -35 -40 l-35 0 0 75 0 75 110 0 110 0 0 35
c0 34 -1 35 -40 35 l-40 0 0 40 0 40 40 0 c39 0 40 1 40 35 0 34 -1 35 -40 35
-39 0 -40 -1 -40 -35 0 -33 -2 -35 -35 -35 -34 0 -35 -1 -35 -40 0 -39 -1 -40
-35 -40 -33 0 -35 -2 -35 -35 0 -34 -1 -35 -40 -35 -39 0 -40 1 -40 35 0 33
-2 35 -35 35 -34 0 -35 1 -35 40 0 39 -1 40 -35 40 -34 0 -35 -1 -35 -40 0
-39 -1 -40 -35 -40 l-35 0 0 -145 0 -145 70 0 70 0 0 35 c0 33 -2 35 -35 35
l-35 0 0 110 0 110 35 0 35 0 0 -70 0 -70 35 0 35 0 0 -150 0 -150 -35 0 c-34
0 -35 1 -35 40 0 39 -1 40 -35 40 -34 0 -35 -1 -35 -40 0 -39 1 -40 35 -40 33
0 35 -2 35 -35 l0 -35 -70 0 -70 0 0 -35 c0 -33 2 -35 35 -35 34 0 35 -1 35
-40 0 -39 -1 -40 -35 -40 l-35 0 0 -70 0 -70 35 0 c33 0 35 2 35 35 0 33 2 35
35 35 l35 0 0 75 0 75 35 0 c34 0 35 -1 35 -40 l0 -40 40 0 40 0 0 40 c0 39 1
40 35 40 l35 0 0 145 0 145 35 0 c33 0 35 -2 35 -35 l0 -35 75 0 75 0 0 -75 0
-75 35 0 c33 0 35 -2 35 -35 0 -33 -2 -35 -35 -35 l-35 0 0 -75 0 -75 -75 0
-75 0 0 35 c0 34 1 35 40 35 l40 0 0 40 0 40 -40 0 -40 0 0 -40 c0 -39 -1 -40
-35 -40 l-35 0 0 -105 0 -105 -35 0 -35 0 0 -110 0 -110 -40 0 -40 0 0 -40 c0
-39 -1 -40 -35 -40 l-35 0 0 110 0 110 -70 0 -70 0 0 -35 c0 -33 2 -35 35 -35
33 0 35 -2 35 -35 0 -33 -2 -35 -35 -35 l-35 0 0 -75 0 -75 35 0 c33 0 35 -2
35 -35 0 -33 2 -35 35 -35 34 0 35 -1 35 -40 0 -39 1 -40 35 -40 34 0 35 1 35
40 0 39 -1 40 -35 40 -33 0 -35 2 -35 35 l0 35 75 0 75 0 0 -185 0 -185 -40 0
-40 0 0 75 0 75 -35 0 -35 0 0 -75 0 -75 35 0 c33 0 35 -2 35 -35 0 -34 1 -35
40 -35 39 0 40 1 40 35 0 33 2 35 35 35 34 0 35 1 35 40 l0 40 75 0 75 0 0
-40 0 -40 -40 0 c-39 0 -40 -1 -40 -35 0 -34 1 -35 40 -35 39 0 40 1 40 35 0
33 2 35 35 35 l35 0 0 -70 0 -70 35 0 35 0 0 -110 0 -110 -35 0 c-34 0 -35 -1
-35 -40 0 -39 1 -40 35 -40 33 0 35 -2 35 -35 0 -34 1 -35 40 -35 l40 0 0 -75
0 -75 70 0 70 0 0 40 0 40 75 0 75 0 0 -40 0 -40 75 0 75 0 0 75 0 75 -40 0
c-39 0 -40 1 -40 35 l0 35 110 0 110 0 0 -110 0 -110 110 0 110 0 0 40 c0 39
1 40 35 40 34 0 35 -1 35 -40 l0 -40 185 0 185 0 0 40 0 40 75 0 75 0 0 -40
c0 -39 1 -40 35 -40 l35 0 0 110 0 110 185 0 185 0 0 40 c0 39 1 40 35 40 l35
0 0 -75 0 -75 -35 0 c-33 0 -35 -2 -35 -35 0 -34 -1 -35 -40 -35 l-40 0 0 -40
0 -40 110 0 110 0 0 40 c0 39 -1 40 -35 40 -33 0 -35 2 -35 35 l0 35 110 0
110 0 0 -75 0 -75 35 0 35 0 0 75 0 75 40 0 c39 0 40 1 40 35 0 34 -1 35 -40
35 -39 0 -40 -1 -40 -35 0 -33 -2 -35 -35 -35 l-35 0 0 75 0 75 75 0 75 0 0
35 c0 34 -1 35 -40 35 l-40 0 0 75 0 75 40 0 40 0 0 70 0 70 -40 0 -40 0 0 40
0 40 40 0 40 0 0 70 0 70 -150 0 -150 0 0 -110 0 -110 -35 0 -35 0 0 150 0
150 35 0 c33 0 35 2 35 35 0 33 -2 35 -35 35 -33 0 -35 -2 -35 -35 0 -33 -2
-35 -35 -35 -33 0 -35 2 -35 35 0 34 -1 35 -40 35 l-40 0 0 75 0 75 75 0 75 0
0 35 c0 33 -2 35 -35 35 -33 0 -35 2 -35 35 l0 35 -75 0 -75 0 0 -35 c0 -33
-2 -35 -35 -35 l-35 0 0 75 0 75 -40 0 -40 0 0 -40 c0 -39 -1 -40 -35 -40 -33
0 -35 -2 -35 -35 l0 -35 -75 0 -75 0 0 35 0 35 -145 0 -145 0 0 40 0 40 110 0
110 0 0 35 c0 33 2 35 35 35 33 0 35 -2 35 -35 0 -34 1 -35 40 -35 39 0 40 1
40 35 0 33 2 35 35 35 33 0 35 2 35 35 0 33 -2 35 -35 35 -33 0 -35 -2 -35
-35 0 -34 -1 -35 -40 -35 -39 0 -40 1 -40 35 0 33 -2 35 -35 35 -33 0 -35 -2
-35 -35 l0 -35 -75 0 -75 0 0 70 0 70 40 0 40 0 0 40 0 40 -75 0 -75 0 0 35
c0 33 2 35 35 35 33 0 35 2 35 35 0 34 1 35 40 35 l40 0 0 75 0 75 110 0 110
0 0 -110 0 -110 -40 0 -40 0 0 -75 0 -75 75 0 75 0 0 110 0 110 35 0 c34 0 35
1 35 40 l0 40 40 0 40 0 0 -75 0 -75 35 0 35 0 0 75 0 75 -35 0 c-33 0 -35 2
-35 35 l0 35 70 0 70 0 0 -75 0 -75 40 0 c39 0 40 -1 40 -35 0 -34 -1 -35 -40
-35 -39 0 -40 -1 -40 -35 l0 -35 75 0 75 0 0 -40 0 -40 -75 0 -75 0 0 -35 c0
-33 -2 -35 -35 -35 -33 0 -35 2 -35 35 l0 35 -75 0 -75 0 0 -70 0 -70 40 0
c39 0 40 1 40 35 0 33 2 35 35 35 33 0 35 -2 35 -35 0 -33 2 -35 35 -35 33 0
35 -2 35 -35 l0 -35 75 0 75 0 0 105 0 105 35 0 c33 0 35 -2 35 -35 0 -34 1
-35 40 -35 39 0 40 -1 40 -35 0 -33 2 -35 35 -35 33 0 35 -2 35 -35 l0 -35
-75 0 -75 0 0 -40 0 -40 40 0 c39 0 40 -1 40 -35 0 -33 2 -35 35 -35 33 0 35
2 35 35 0 33 2 35 35 35 34 0 35 1 35 40 l0 40 40 0 40 0 0 290 0 290 -40 0
c-39 0 -40 1 -40 35 0 34 1 35 40 35 l40 0 0 40 0 40 -40 0 -40 0 0 -40 c0
-39 -1 -40 -35 -40 -33 0 -35 -2 -35 -35 0 -33 -2 -35 -35 -35 -33 0 -35 -2
-35 -35 0 -33 2 -35 35 -35 l35 0 0 -75 0 -75 35 0 c33 0 35 -2 35 -35 l0 -35
-70 0 -70 0 0 70 0 70 -40 0 -40 0 0 -70 0 -70 -35 0 -35 0 0 70 0 70 -35 0
c-34 0 -35 1 -35 40 l0 40 70 0 70 0 0 35 0 35 -70 0 -70 0 0 110 0 110 110 0
110 0 0 -35 c0 -34 -1 -35 -40 -35 l-40 0 0 -40 0 -40 40 0 40 0 0 40 c0 39 1
40 35 40 33 0 35 2 35 35 0 33 2 35 35 35 33 0 35 2 35 35 0 34 1 35 40 35
l40 0 0 75 0 75 -75 0 -75 0 0 -35 c0 -33 -2 -35 -35 -35 -33 0 -35 2 -35 35
l0 35 -110 0 -110 0 0 -35 c0 -34 -1 -35 -40 -35 l-40 0 0 -40 c0 -39 -1 -40
-35 -40 -34 0 -35 1 -35 40 0 39 -1 40 -35 40 -33 0 -35 2 -35 35 0 33 2 35
35 35 l35 0 0 110 0 110 -75 0 -75 0 0 -35 c0 -33 -2 -35 -35 -35 -33 0 -35 2
-35 35 0 33 -2 35 -35 35 -33 0 -35 2 -35 35 0 33 2 35 35 35 l35 0 0 110 0
110 75 0 75 0 0 35 0 35 -75 0 -75 0 0 -35 c0 -33 -2 -35 -35 -35 l-35 0 0
-110 0 -110 -40 0 -40 0 0 40 0 40 -70 0 -70 0 0 35 0 35 70 0 70 0 0 70 0 70
-35 0 c-33 0 -35 -2 -35 -35 0 -33 -2 -35 -35 -35 -33 0 -35 2 -35 35 l0 35
-75 0 -75 0 0 -105 0 -105 -35 0 c-33 0 -35 2 -35 35 0 34 -1 35 -40 35 -39 0
-40 1 -40 35 0 33 -2 35 -35 35 -33 0 -35 2 -35 35 l0 35 -70 0 -70 0 0 -70 0
-70 105 0 105 0 0 -35 c0 -33 -2 -35 -35 -35 l-35 0 0 -110 0 -110 -35 0 c-34
0 -35 -1 -35 -40 0 -39 1 -40 35 -40 33 0 35 -2 35 -35 l0 -35 -70 0 -70 0 0
-35 0 -35 -75 0 -75 0 0 110 0 110 35 0 c34 0 35 -1 35 -40 l0 -40 40 0 40 0
0 75 0 75 -75 0 -75 0 0 -35 c0 -33 -2 -35 -35 -35 -33 0 -35 2 -35 35 0 34
-1 35 -40 35 -39 0 -40 1 -40 35 0 34 1 35 40 35 l40 0 0 110 0 110 70 0 70 0
0 35 0 35 -70 0 -70 0 0 -35z m-370 -215 c0 -39 -1 -40 -35 -40 -34 0 -35 1
-35 40 0 39 1 40 35 40 34 0 35 -1 35 -40z m290 0 c0 -39 -1 -40 -35 -40 -34
0 -35 1 -35 40 0 39 1 40 35 40 34 0 35 -1 35 -40z m590 0 l0 -40 -40 0 -40 0
0 40 0 40 40 0 40 0 0 -40z m0 -145 c0 -33 2 -35 35 -35 33 0 35 2 35 35 l0
35 75 0 75 0 0 -75 0 -75 35 0 c34 0 35 1 35 40 0 39 1 40 35 40 34 0 35 -1
35 -40 l0 -40 40 0 40 0 0 40 c0 39 1 40 35 40 34 0 35 -1 35 -40 0 -39 -1
-40 -35 -40 -33 0 -35 -2 -35 -35 0 -33 2 -35 35 -35 33 0 35 -2 35 -35 l0
-35 75 0 75 0 0 -40 c0 -39 1 -40 35 -40 33 0 35 -2 35 -35 0 -33 2 -35 35
-35 l35 0 0 -75 0 -75 -35 0 c-34 0 -35 1 -35 40 l0 40 -75 0 -75 0 0 -40 0
-40 40 0 c39 0 40 -1 40 -35 0 -34 -1 -35 -40 -35 -39 0 -40 -1 -40 -35 0 -33
-2 -35 -35 -35 l-35 0 0 110 0 110 -35 0 c-34 0 -35 -1 -35 -40 l0 -40 -40 0
-40 0 0 40 c0 39 -1 40 -35 40 -34 0 -35 -1 -35 -40 0 -39 -1 -40 -35 -40 -34
0 -35 1 -35 40 l0 40 -40 0 c-39 0 -40 1 -40 35 0 33 -2 35 -35 35 l-35 0 0
-75 0 -75 35 0 c33 0 35 -2 35 -35 l0 -35 -70 0 -70 0 0 -35 0 -35 70 0 70 0
0 -40 c0 -39 -1 -40 -35 -40 -33 0 -35 -2 -35 -35 0 -33 -2 -35 -35 -35 -33 0
-35 2 -35 35 0 34 -1 35 -40 35 l-40 0 0 40 c0 39 -1 40 -35 40 -34 0 -35 -1
-35 -40 0 -39 -1 -40 -35 -40 l-35 0 0 -70 0 -70 -35 0 -35 0 0 110 0 110 -40
0 -40 0 0 -40 0 -40 -70 0 -70 0 0 110 0 110 -40 0 c-39 0 -40 -1 -40 -35 0
-33 -2 -35 -35 -35 -33 0 -35 -2 -35 -35 0 -33 2 -35 35 -35 l35 0 0 -75 0
-75 75 0 75 0 0 -35 c0 -33 2 -35 35 -35 34 0 35 -1 35 -40 0 -39 -1 -40 -35
-40 l-35 0 0 -105 0 -105 35 0 35 0 0 70 0 70 75 0 75 0 0 -70 0 -70 35 0 c34
0 35 -1 35 -40 0 -39 1 -40 35 -40 33 0 35 -2 35 -35 0 -34 1 -35 40 -35 39 0
40 1 40 35 0 33 2 35 35 35 33 0 35 -2 35 -35 0 -33 -2 -35 -35 -35 -33 0 -35
-2 -35 -35 0 -34 -1 -35 -40 -35 -39 0 -40 1 -40 35 0 33 -2 35 -35 35 -33 0
-35 -2 -35 -35 0 -33 -2 -35 -35 -35 -34 0 -35 -1 -35 -40 l0 -40 110 0 110 0
0 -35 c0 -34 -1 -35 -40 -35 -39 0 -40 -1 -40 -35 0 -34 1 -35 40 -35 l40 0 0
-40 0 -40 -40 0 c-39 0 -40 -1 -40 -35 l0 -35 75 0 75 0 0 185 0 185 35 0 c33
0 35 2 35 35 l0 35 75 0 75 0 0 -35 0 -35 110 0 110 0 0 35 0 35 75 0 75 0 0
-35 c0 -33 2 -35 35 -35 34 0 35 -1 35 -40 0 -39 -1 -40 -35 -40 l-35 0 0 -70
0 -70 35 0 c34 0 35 -1 35 -40 l0 -40 -110 0 -110 0 0 -35 0 -35 145 0 145 0
0 35 c0 34 1 35 40 35 l40 0 0 -110 0 -110 -40 0 -40 0 0 40 c0 39 -1 40 -35
40 -34 0 -35 -1 -35 -40 0 -39 -1 -40 -35 -40 -33 0 -35 -2 -35 -35 0 -34 -1
-35 -40 -35 -39 0 -40 -1 -40 -35 0 -34 1 -35 40 -35 l40 0 0 -110 0 -110 -40
0 -40 0 0 110 0 110 -35 0 -35 0 0 -110 0 -110 -35 0 c-34 0 -35 -1 -35 -40
l0 -40 -40 0 c-39 0 -40 -1 -40 -35 0 -33 -2 -35 -35 -35 -33 0 -35 -2 -35
-35 l0 -35 -145 0 -145 0 0 35 0 35 -110 0 -110 0 0 -35 c0 -33 -2 -35 -35
-35 l-35 0 0 70 0 70 -40 0 -40 0 0 40 c0 39 -1 40 -35 40 -33 0 -35 2 -35 35
0 33 -2 35 -35 35 -33 0 -35 -2 -35 -35 l0 -35 -150 0 -150 0 0 -75 0 -75 -70
0 -70 0 0 35 c0 34 -1 35 -40 35 l-40 0 0 40 0 40 40 0 40 0 0 -40 c0 -39 1
-40 35 -40 34 0 35 1 35 40 0 39 1 40 35 40 33 0 35 2 35 35 0 33 -2 35 -35
35 -33 0 -35 2 -35 35 0 33 -2 35 -35 35 -34 0 -35 1 -35 40 l0 40 70 0 70 0
0 70 0 70 -35 0 c-33 0 -35 -2 -35 -35 l0 -35 -75 0 -75 0 0 35 c0 33 -2 35
-35 35 -34 0 -35 1 -35 40 0 39 -1 40 -35 40 -33 0 -35 2 -35 35 0 34 -1 35
-40 35 -39 0 -40 1 -40 35 l0 35 75 0 75 0 0 -35 c0 -33 2 -35 35 -35 33 0 35
2 35 35 0 34 1 35 40 35 l40 0 0 40 0 40 -185 0 -185 0 0 35 c0 33 -2 35 -35
35 l-35 0 0 75 0 75 35 0 35 0 0 70 0 70 75 0 75 0 0 40 0 40 -40 0 c-39 0
-40 1 -40 35 l0 35 75 0 75 0 0 -75 0 -75 35 0 35 0 0 110 0 110 40 0 c39 0
40 1 40 35 0 34 -1 35 -40 35 l-40 0 0 40 0 40 40 0 c39 0 40 1 40 35 0 34 -1
35 -40 35 -39 0 -40 1 -40 35 0 34 1 35 40 35 l40 0 0 75 0 75 35 0 c33 0 35
2 35 35 l0 35 75 0 75 0 0 40 c0 39 1 40 35 40 34 0 35 -1 35 -40 0 -39 1 -40
35 -40 34 0 35 1 35 40 l0 40 110 0 110 0 0 -75 0 -75 75 0 75 0 0 35 c0 33
-2 35 -35 35 l-35 0 0 75 0 75 -40 0 c-39 0 -40 1 -40 35 0 34 1 35 40 35 39
0 40 -1 40 -35 0 -33 2 -35 35 -35 l35 0 0 75 0 75 70 0 70 0 0 70 0 70 -35 0
c-34 0 -35 1 -35 40 0 39 1 40 35 40 33 0 35 2 35 35 0 34 1 35 40 35 39 0 40
-1 40 -35z m-950 -75 c0 -39 1 -40 35 -40 34 0 35 1 35 40 0 39 1 40 35 40
l35 0 0 -75 0 -75 -70 0 -70 0 0 35 c0 34 -1 35 -40 35 l-40 0 0 40 0 40 40 0
40 0 0 -40z m1610 0 l0 -40 -40 0 -40 0 0 40 0 40 40 0 40 0 0 -40z m-1540
-220 c0 -39 -1 -40 -35 -40 -34 0 -35 1 -35 40 0 39 1 40 35 40 34 0 35 -1 35
-40z m1900 0 l0 -40 -70 0 -70 0 0 40 0 40 70 0 70 0 0 -40z m220 0 c0 -39 -1
-40 -35 -40 -34 0 -35 1 -35 40 0 39 1 40 35 40 34 0 35 -1 35 -40z m-2630
-515 c0 -34 -1 -35 -40 -35 -39 0 -40 1 -40 35 0 34 1 35 40 35 39 0 40 -1 40
-35z m1460 -145 c0 -39 -1 -40 -35 -40 -33 0 -35 -2 -35 -35 0 -33 2 -35 35
-35 33 0 35 -2 35 -35 l0 -35 -110 0 -110 0 0 110 0 110 110 0 110 0 0 -40z
m1170 -75 l0 -35 -70 0 -70 0 0 35 0 35 70 0 70 0 0 -35z m-2780 -510 c0 -33
-2 -35 -35 -35 -33 0 -35 2 -35 35 0 33 2 35 35 35 33 0 35 -2 35 -35z m2780
-290 c0 -33 -2 -35 -35 -35 -34 0 -35 -1 -35 -40 0 -39 1 -40 35 -40 33 0 35
-2 35 -35 0 -33 -2 -35 -35 -35 -33 0 -35 2 -35 35 0 33 -2 35 -35 35 l-35 0
0 -70 0 -70 35 0 c34 0 35 -1 35 -40 l0 -40 -75 0 -75 0 0 110 0 110 40 0 40
0 0 40 c0 39 1 40 35 40 33 0 35 2 35 35 0 33 2 35 35 35 33 0 35 -2 35 -35z
m-290 -295 l0 -110 -110 0 -110 0 0 110 0 110 110 0 110 0 0 -110z m220 -145
l0 -35 -75 0 -75 0 0 35 0 35 75 0 75 0 0 -35z"/>
<path d="M1600 2530 l0 -40 40 0 40 0 0 40 0 40 -40 0 -40 0 0 -40z"/>
<path d="M1750 2495 l0 -75 35 0 35 0 0 -75 0 -75 40 0 40 0 0 75 0 75 -40 0
-40 0 0 75 0 75 -35 0 -35 0 0 -75z"/>
<path d="M1970 2455 c0 -33 2 -35 35 -35 33 0 35 2 35 35 0 33 -2 35 -35 35
-33 0 -35 -2 -35 -35z"/>
<path d="M1680 2310 l0 -40 -75 0 -75 0 0 -35 c0 -33 -2 -35 -35 -35 l-35 0 0
-75 0 -75 35 0 35 0 0 75 0 75 110 0 110 0 0 75 0 75 -35 0 c-34 0 -35 -1 -35
-40z"/>
<path d="M2040 2310 l0 -40 40 0 c39 0 40 -1 40 -35 0 -34 -1 -35 -40 -35 -39
0 -40 -1 -40 -35 0 -34 1 -35 40 -35 39 0 40 1 40 35 0 33 2 35 35 35 33 0 35
-2 35 -35 0 -33 2 -35 35 -35 33 0 35 2 35 35 0 34 1 35 40 35 39 0 40 1 40
35 0 34 -1 35 -40 35 -39 0 -40 -1 -40 -35 0 -33 -2 -35 -35 -35 l-35 0 0 75
0 75 -75 0 -75 0 0 -40z"/>
<path d="M950 2015 c0 -34 -1 -35 -40 -35 -39 0 -40 -1 -40 -35 0 -33 -2 -35
-35 -35 -34 0 -35 -1 -35 -40 0 -39 1 -40 35 -40 33 0 35 -2 35 -35 0 -34 1
-35 40 -35 39 0 40 1 40 35 0 33 2 35 35 35 34 0 35 1 35 40 0 39 -1 40 -35
40 -33 0 -35 2 -35 35 0 33 2 35 35 35 33 0 35 2 35 35 0 33 -2 35 -35 35 -33
0 -35 -2 -35 -35z"/>
<path d="M1240 1945 c0 -33 2 -35 35 -35 33 0 35 2 35 35 0 33 -2 35 -35 35
-33 0 -35 -2 -35 -35z"/>
<path d="M1020 1725 l0 -35 -110 0 -110 0 0 -75 0 -75 -35 0 -35 0 0 -110 0
-110 35 0 c33 0 35 -2 35 -35 0 -33 2 -35 35 -35 l35 0 0 -75 0 -75 -35 0
c-34 0 -35 1 -35 40 0 39 -1 40 -35 40 -34 0 -35 -1 -35 -40 l0 -40 -40 0 -40
0 0 40 0 40 -70 0 -70 0 0 35 c0 33 2 35 35 35 33 0 35 2 35 35 0 33 -2 35
-35 35 -33 0 -35 -2 -35 -35 0 -34 -1 -35 -40 -35 -39 0 -40 -1 -40 -35 0 -33
-2 -35 -35 -35 -34 0 -35 -1 -35 -40 0 -39 1 -40 35 -40 33 0 35 -2 35 -35 l0
-35 150 0 150 0 0 35 c0 33 2 35 35 35 l35 0 0 -110 0 -110 110 0 110 0 0
-110 0 -110 -35 0 -35 0 0 75 0 75 -40 0 -40 0 0 -75 0 -75 40 0 40 0 0 -110
0 -110 -40 0 c-39 0 -40 -1 -40 -35 l0 -35 75 0 75 0 0 75 0 75 75 0 75 0 0
-40 c0 -39 1 -40 35 -40 34 0 35 1 35 40 0 39 -1 40 -35 40 -33 0 -35 2 -35
35 l0 35 -75 0 -75 0 0 35 0 35 75 0 75 0 0 40 c0 39 1 40 35 40 34 0 35 -1
35 -40 0 -39 1 -40 35 -40 33 0 35 -2 35 -35 0 -34 1 -35 40 -35 39 0 40 -1
40 -35 0 -34 -1 -35 -40 -35 l-40 0 0 -40 0 -40 75 0 75 0 0 75 0 75 70 0 70
0 0 35 c0 34 1 35 40 35 l40 0 0 -70 0 -70 35 0 35 0 0 70 0 70 35 0 c33 0 35
-2 35 -35 0 -34 1 -35 40 -35 39 0 40 -1 40 -35 0 -33 2 -35 35 -35 33 0 35 2
35 35 0 33 2 35 35 35 l35 0 0 -75 0 -75 -35 0 c-33 0 -35 -2 -35 -35 0 -33 2
-35 35 -35 33 0 35 -2 35 -35 0 -34 1 -35 40 -35 l40 0 0 110 0 110 35 0 c33
0 35 2 35 35 0 33 -2 35 -35 35 -33 0 -35 2 -35 35 l0 35 70 0 70 0 0 40 c0
39 -1 40 -35 40 -33 0 -35 2 -35 35 0 33 -2 35 -35 35 -33 0 -35 2 -35 35 0
33 2 35 35 35 34 0 35 1 35 40 0 39 1 40 35 40 l35 0 0 70 0 70 40 0 40 0 0
40 0 40 -75 0 -75 0 0 -40 c0 -39 -1 -40 -35 -40 l-35 0 0 -110 0 -110 -40 0
-40 0 0 75 0 75 -110 0 -110 0 0 -35 c0 -34 1 -35 40 -35 l40 0 0 -40 0 -40
-40 0 c-39 0 -40 -1 -40 -35 0 -33 -2 -35 -35 -35 l-35 0 0 -75 0 -75 -35 0
c-34 0 -35 1 -35 40 l0 40 -40 0 c-39 0 -40 1 -40 35 0 33 -2 35 -35 35 l-35
0 0 -75 0 -75 -110 0 -110 0 0 75 0 75 40 0 c39 0 40 -1 40 -35 0 -33 2 -35
35 -35 l35 0 0 110 0 110 35 0 c33 0 35 2 35 35 0 33 -2 35 -35 35 -33 0 -35
-2 -35 -35 0 -33 -2 -35 -35 -35 -33 0 -35 2 -35 35 0 34 -1 35 -40 35 -39 0
-40 1 -40 35 0 34 1 35 40 35 l40 0 0 40 0 40 -75 0 -75 0 0 35 0 35 110 0
110 0 0 75 0 75 -75 0 -75 0 0 -40 0 -40 -70 0 -70 0 0 145 0 145 35 0 c34 0
35 1 35 40 0 39 -1 40 -35 40 -34 0 -35 -1 -35 -40 l0 -40 -40 0 -40 0 0 75 0
75 -35 0 c-33 0 -35 -2 -35 -35z m70 -220 l0 -105 -70 0 -70 0 0 -40 0 -40
-40 0 -40 0 0 40 c0 39 -1 40 -35 40 -33 0 -35 2 -35 35 0 33 2 35 35 35 33 0
35 2 35 35 0 34 1 35 40 35 39 0 40 1 40 35 l0 35 70 0 70 0 0 -105z m-580
-365 l0 -40 -40 0 -40 0 0 40 0 40 40 0 40 0 0 -40z m660 0 c0 -39 1 -40 35
-40 33 0 35 -2 35 -35 0 -33 2 -35 35 -35 l35 0 0 -75 0 -75 -70 0 -70 0 0
-35 c0 -34 -1 -35 -40 -35 l-40 0 0 110 0 110 -35 0 c-33 0 -35 -2 -35 -35 l0
-35 -75 0 -75 0 0 70 0 70 75 0 75 0 0 40 0 40 75 0 75 0 0 -40z m800 -295 c0
-33 -2 -35 -35 -35 -33 0 -35 2 -35 35 0 33 2 35 35 35 33 0 35 -2 35 -35z
m150 -145 l0 -40 -75 0 -75 0 0 -35 c0 -33 -2 -35 -35 -35 -33 0 -35 2 -35 35
0 33 2 35 35 35 34 0 35 1 35 40 l0 40 75 0 75 0 0 -40z"/>
<path d="M950 1505 c0 -34 -1 -35 -40 -35 -39 0 -40 -1 -40 -35 0 -34 1 -35
40 -35 39 0 40 1 40 35 0 33 2 35 35 35 33 0 35 2 35 35 0 33 -2 35 -35 35
-33 0 -35 -2 -35 -35z"/>
<path d="M1090 1065 c0 -34 1 -35 40 -35 39 0 40 1 40 35 0 34 -1 35 -40 35
-39 0 -40 -1 -40 -35z"/>
<path d="M730 735 l0 -75 35 0 35 0 0 75 0 75 -35 0 -35 0 0 -75z"/>
<path d="M1600 405 c0 -33 -2 -35 -35 -35 -33 0 -35 -2 -35 -35 l0 -35 75 0
75 0 0 -75 0 -75 35 0 35 0 0 75 0 75 -35 0 -35 0 0 70 0 70 -40 0 c-39 0 -40
-1 -40 -35z"/>
<path d="M1750 405 c0 -33 2 -35 35 -35 33 0 35 -2 35 -35 0 -34 1 -35 40 -35
l40 0 0 -40 0 -40 -40 0 c-39 0 -40 -1 -40 -35 0 -34 1 -35 40 -35 39 0 40 1
40 35 0 33 2 35 35 35 34 0 35 1 35 40 0 39 -1 40 -35 40 -33 0 -35 2 -35 35
0 34 -1 35 -40 35 -39 0 -40 1 -40 35 0 33 -2 35 -35 35 -33 0 -35 -2 -35 -35z"/>
<path d="M1310 335 c0 -34 1 -35 40 -35 39 0 40 1 40 35 0 34 -1 35 -40 35
-39 0 -40 -1 -40 -35z"/>
<path d="M2480 480 l0 -40 40 0 40 0 0 40 0 40 -40 0 -40 0 0 -40z"/>
<path d="M2480 2745 l0 -255 260 0 260 0 0 255 0 255 -260 0 -260 0 0 -255z
m440 5 l0 -180 -180 0 -180 0 0 180 0 180 180 0 180 0 0 -180z"/>
<path d="M2630 2750 l0 -110 110 0 110 0 0 110 0 110 -110 0 -110 0 0 -110z"/>
<path d="M1240 2825 c0 -33 2 -35 35 -35 34 0 35 -1 35 -40 l0 -40 40 0 40 0
0 40 0 40 -40 0 c-39 0 -40 1 -40 35 0 33 -2 35 -35 35 -33 0 -35 -2 -35 -35z"/>
<path d="M2340 2825 c0 -34 -1 -35 -40 -35 l-40 0 0 -40 0 -40 40 0 40 0 0 40
c0 39 1 40 35 40 33 0 35 2 35 35 0 33 -2 35 -35 35 -33 0 -35 -2 -35 -35z"/>
<path d="M210 2385 c0 -34 1 -35 40 -35 39 0 40 1 40 35 0 34 -1 35 -40 35
-39 0 -40 -1 -40 -35z"/>
<path d="M1970 1870 c0 -39 1 -40 35 -40 34 0 35 1 35 40 0 39 -1 40 -35 40
-34 0 -35 -1 -35 -40z"/>
<path d="M430 1795 c0 -34 1 -35 40 -35 39 0 40 1 40 35 0 34 -1 35 -40 35
-39 0 -40 -1 -40 -35z"/>
<path d="M140 1435 c0 -33 2 -35 35 -35 33 0 35 2 35 35 0 33 -2 35 -35 35
-33 0 -35 -2 -35 -35z"/>
<path d="M2920 1215 c0 -33 -2 -35 -35 -35 l-35 0 0 -110 0 -110 75 0 75 0 0
70 0 70 -40 0 -40 0 0 40 0 40 40 0 c39 0 40 1 40 35 0 34 -1 35 -40 35 -39 0
-40 -1 -40 -35z"/>
<path d="M2700 1140 l0 -40 40 0 40 0 0 40 0 40 -40 0 -40 0 0 -40z"/>
<path d="M0 775 c0 -33 2 -35 35 -35 33 0 35 2 35 35 0 33 -2 35 -35 35 -33 0
-35 -2 -35 -35z"/>
<path d="M0 625 c0 -33 2 -35 35 -35 33 0 35 2 35 35 0 33 -2 35 -35 35 -33 0
-35 -2 -35 -35z"/>
<path d="M0 260 l0 -260 255 0 255 0 0 260 0 260 -255 0 -255 0 0 -260z m430
0 l0 -180 -180 0 -180 0 0 180 0 180 180 0 180 0 0 -180z"/>
<path d="M140 260 l0 -110 110 0 110 0 0 110 0 110 -110 0 -110 0 0 -110z"/>
<path d="M2260 115 c0 -34 1 -35 40 -35 l40 0 0 -40 c0 -39 1 -40 35 -40 l35
0 0 75 0 75 -75 0 -75 0 0 -35z"/>
</g>
</svg>
